<svg height="512pt" viewBox="0 -43 512 512" width="512pt" xmlns="http://www.w3.org/2000/svg"><path d="m97.007812 372.679688h-17.007812c-44.113281 0-80-35.886719-80-80v-160c0-44.113282 35.886719-80 80-80h144v32h-144c-26.464844 0-48 21.535156-48 48v160c0 26.464843 21.535156 48 48 48h17.007812zm0 0" fill="#fff"/><g fill="#fbc02d"><path d="m432 372.679688h-124.992188v-32h124.992188c26.464844 0 48-21.535157 48-48v-160c0-26.464844-21.535156-48-48-48h-16v-32h16c44.113281 0 80 35.886718 80 80v160c0 44.113281-35.886719 80-80 80zm0 0"/><path d="m352 52.679688h32v32h-32zm0 0"/><path d="m288 52.679688h32v32h-32zm0 0"/></g><path d="m192 340.679688h32v32h-32zm0 0" fill="#fff"/><path d="m128 340.679688h32v32h-32zm0 0" fill="#fff"/><path d="m160 132.679688c-6.238281-6.238282-6.238281-16.382813 0-22.625l41.375-41.375-41.375-41.375c-6.238281-6.242188-6.238281-16.382813 0-22.625 6.238281-6.238282 16.382812-6.238282 22.625 0l64 64-64 64c-6.242188 6.242187-16.386719 6.242187-22.625 0zm0 0" fill="#fff"/><path d="m329.375 420.679688-64-64 64-64c6.242188-6.238282 16.386719-6.238282 22.625 0 6.238281 6.242187 6.238281 16.382812 0 22.625l-41.375 41.375 41.375 41.375c6.238281 6.242187 6.238281 16.386718 0 22.625-6.238281 6.242187-16.382812 6.242187-22.625 0zm0 0" fill="#fdd835"/></svg>
