<?xml version="1.0" encoding="UTF-8"?>
<svg xmlns="http://www.w3.org/2000/svg" xmlns:xlink="http://www.w3.org/1999/xlink" width="32pt" height="32pt" viewBox="0 0 32 32" version="1.1">
<g id="surface1">
<path style=" stroke:none;fill-rule:nonzero;fill:rgb(98.431373%,75.294118%,17.647059%);fill-opacity:1;" d="M 14.972656 30.972656 C 14.972656 30.464844 15.355469 30.019531 15.867188 29.984375 C 22.160156 29.519531 27.136719 24.246094 27.136719 17.835938 L 29.132812 17.78125 L 29.132812 17.835938 C 29.132812 25.277344 23.367188 31.398438 16.074219 31.96875 C 15.480469 32.015625 14.972656 31.566406 14.972656 30.972656 Z M 14.972656 30.972656 "/>
<path style=" stroke:none;fill-rule:nonzero;fill:rgb(30.196078%,81.568627%,88.235294%);fill-opacity:1;" d="M 7.101562 28.566406 C 2.722656 26.042969 0 21.332031 0 16.277344 C 0 14.144531 0.480469 12.042969 1.398438 10.136719 C 1.640625 9.632812 2.246094 9.429688 2.730469 9.707031 L 2.824219 9.761719 C 3.265625 10.011719 3.40625 10.558594 3.1875 11.015625 C 2.40625 12.652344 1.996094 14.453125 1.996094 16.277344 C 1.996094 20.621094 4.335938 24.667969 8.097656 26.839844 Z M 7.101562 28.566406 "/>
<path style=" stroke:none;fill-rule:nonzero;fill:rgb(90.196078%,29.019608%,9.803922%);fill-opacity:1;" d="M 27.285156 8.667969 C 26.84375 8.929688 26.269531 8.816406 25.980469 8.394531 C 23.71875 5.105469 19.945312 3.101562 15.933594 3.101562 C 13.777344 3.101562 11.664062 3.667969 9.8125 4.746094 L 8.808594 3.023438 C 10.964844 1.769531 13.425781 1.105469 15.933594 1.105469 C 20.585938 1.105469 24.960938 3.421875 27.59375 7.21875 C 27.929688 7.707031 27.796875 8.371094 27.285156 8.667969 Z M 27.285156 8.667969 "/>
<path style=" stroke:none;fill-rule:nonzero;fill:rgb(100%,43.921569%,26.27451%);fill-opacity:1;" d="M 12.734375 6.066406 L 7.746094 6.066406 L 7.746094 1.074219 C 7.746094 0.523438 8.191406 0.0742188 8.742188 0.0742188 C 9.292969 0.0742188 9.738281 0.523438 9.738281 1.074219 L 9.738281 4.066406 L 12.734375 4.066406 C 13.285156 4.066406 13.730469 4.515625 13.730469 5.066406 C 13.730469 5.617188 13.285156 6.066406 12.734375 6.066406 Z M 12.734375 6.066406 "/>
<path style=" stroke:none;fill-rule:nonzero;fill:rgb(50.196078%,87.058824%,91.764706%);fill-opacity:1;" d="M 8.484375 29.019531 L 3.492188 29.019531 C 2.941406 29.019531 2.496094 28.570312 2.496094 28.019531 C 2.496094 27.46875 2.941406 27.023438 3.492188 27.023438 L 6.488281 27.023438 L 6.488281 24.027344 C 6.488281 23.476562 6.933594 23.03125 7.484375 23.03125 C 8.035156 23.03125 8.484375 23.476562 8.484375 24.027344 Z M 8.484375 29.019531 "/>
<path style=" stroke:none;fill-rule:nonzero;fill:rgb(99.215686%,84.705882%,20.784314%);fill-opacity:1;" d="M 30.308594 20.113281 L 28.191406 17.996094 L 26.074219 20.113281 C 25.683594 20.503906 25.050781 20.503906 24.660156 20.113281 C 24.269531 19.722656 24.273438 19.089844 24.660156 18.703125 L 28.191406 15.175781 L 31.71875 18.703125 C 32.109375 19.089844 32.109375 19.722656 31.71875 20.113281 C 31.332031 20.503906 30.699219 20.503906 30.308594 20.113281 Z M 30.308594 20.113281 "/>
</g>
</svg>
